<svg width="62" height="72" viewBox="0 0 62 72" fill="none" xmlns="http://www.w3.org/2000/svg">
<path d="M23.067 59.2532C22.094 57.9594 21.0114 56.5855 19.846 55.121C15.6306 49.8468 12.038 45.7146 11.6344 40.4565C11.0971 33.5975 17.5739 29.9113 17.5739 29.9113C15.5745 40.0609 18.7768 43.2391 21.4979 46.6955C22.9627 48.556 24.4623 50.3309 25.847 52.012C22.7756 56.8261 23.0911 58.8684 23.067 59.2532ZM60.9549 32.9559L48.3193 11.0557C47.8995 10.3366 47.3354 9.72451 46.6698 9.27812C45.1411 2.75055 37.9211 0.128306 37.5415 0C37.8623 0.181767 46.6698 9.27816 41.2063 17.1716C39.5009 19.6335 37.5629 22.3012 35.2534 25.1988C31.0353 30.47 27.8063 34.6774 27.5577 37.893C27.1995 42.3918 30.5809 44.8111 30.8883 45.0302C30.3858 44.8111 21.808 40.9296 23.1446 32.0765C23.7834 27.8798 28.8702 22.7903 33.6068 16.7733C35.3924 14.5039 37.3785 12.3521 37.9692 8.27572H18.2074C16.2213 8.27572 14.3823 9.33157 13.3852 11.0557L0.749789 32.9559C-0.24993 34.6721 -0.24993 36.7971 0.749789 38.5185L13.3852 60.4161C14.3823 62.1374 16.2213 63.1989 18.2074 63.1989H26.2934C25.9218 61.8246 25.7989 60.2663 26.0608 58.5235C26.697 54.3163 31.7865 49.2322 36.5151 43.2125C39.2336 39.7508 42.4332 36.5752 40.4364 26.4257C40.4364 26.4257 46.9078 30.1145 46.3788 36.9789C45.9641 42.2261 42.3797 46.3613 38.1617 51.6324C34.4301 56.3155 31.4309 60.146 30.6665 63.1989C29.6293 67.3097 33.4919 71.2528 33.7993 71.4689H33.8046L33.8073 71.4745H33.818C33.7057 71.2849 31.2439 66.9973 33.3155 63.1989H43.489C45.483 63.1989 47.317 62.1374 48.3193 60.4161L60.9549 38.5185C61.9436 36.7971 61.9436 34.6721 60.9549 32.9559Z" fill="#464B4E"/>
</svg>
